<?xml version="1.0" encoding="utf-8"?>
<!-- Generator: Adobe Illustrator 22.0.1, SVG Export Plug-In . SVG Version: 6.00 Build 0)  -->
<svg version="1.1" id="Layer_1" xmlns="http://www.w3.org/2000/svg" xmlns:xlink="http://www.w3.org/1999/xlink" x="0px" y="0px"
	 viewBox="0 0 444.7 150.6" style="enable-background:new 0 0 444.7 150.6;" xml:space="preserve">
<style type="text/css">
	.st0{fill:#FFFFFF;}
</style>
<g>
	<path class="st0" d="M438.3,56.9v64.3c0,1-0.8,1.7-1.7,1.7h-16.9c-1,0-1.7-0.8-1.7-1.7v-4.6c-4.5,5.1-11.1,8.3-20.2,8.3
		c-17.7,0-32.4-15.6-32.4-35.8c0-20.2,14.6-35.8,32.4-35.8c9.1,0,15.7,3.1,20.2,8.3v-4.6c0-1,0.8-1.7,1.7-1.7h16.9
		C437.5,55.2,438.3,55.9,438.3,56.9z M418,89c0-10.2-6.8-16.5-16.1-16.5c-9.3,0-16.1,6.4-16.1,16.5c0,10.2,6.8,16.5,16.1,16.5
		C411.2,105.6,418,99.2,418,89z"/>
	<path class="st0" d="M0.9,100.9l15.8-9.2c0.9-0.5,2-0.2,2.4,0.7c3.5,7,9.3,11.5,19.2,11.5c10.3,0,12.9-4.1,12.9-7.8
		c0-5.9-5.4-8.2-19.7-12.1c-14.2-3.9-28-10.8-28-29c0-18.4,15.5-29,32-29c15.1,0,27,7,34.1,20c0.4,0.8,0.1,1.8-0.7,2.3l-15.4,9
		c-0.8,0.5-1.9,0.2-2.4-0.7c-3.2-5.9-7.6-9.4-15.7-9.4c-6.8,0-10.2,3.4-10.2,7.2c0,4.4,2.3,7.4,17.2,11.8
		c14.4,4.4,30.6,9.4,30.6,29.5c0,18.4-14.7,29.3-35.4,29.3c-19.3,0-31.9-8.9-37.6-22.1C-0.2,102.3,0.1,101.3,0.9,100.9z"/>
	<path class="st0" d="M142.8,55.2c1.2,0,2,1.2,1.6,2.3L122,121.2c-7.4,21-19,29.7-37.1,29.3c-0.9,0-1.7-0.8-1.7-1.7l0-15.7
		c0-0.9,0.7-1.7,1.7-1.7c8.2-0.3,12.3-3.3,15.1-10.6c0.2-0.4,0.2-0.9,0-1.3L74.1,57.6c-0.5-1.1,0.4-2.4,1.6-2.4h18.6
		c0.7,0,1.4,0.5,1.6,1.1l14.7,40.5l12.4-40.4c0.2-0.7,0.9-1.2,1.7-1.2H142.8z"/>
	<path class="st0" d="M329.8,89.2c0,20.3-14.7,35.9-32.5,35.9c-9.1,0-15.8-3.1-20.3-8.3v31.7c0,1.1-0.9,1.9-1.9,1.9h-16.6
		c-1.1,0-1.9-0.9-1.9-1.9V57.1c0-1.1,0.9-1.9,1.9-1.9H275c1.1,0,1.9,0.9,1.9,1.9v4.5c4.5-5.2,11.2-8.3,20.3-8.3
		C315.1,53.3,329.8,69,329.8,89.2z M309.4,89.2c0-10.2-6.8-16.6-16.2-16.6S277,79,277,89.2c0,10.2,6.8,16.6,16.2,16.6
		S309.4,99.5,309.4,89.2z"/>
	<path class="st0" d="M339.2,23.7h17c1,0,1.7,0.8,1.7,1.7v95.9c0,1-0.8,1.7-1.7,1.7h-17c-1,0-1.7-0.8-1.7-1.7V25.5
		C337.4,24.5,338.2,23.7,339.2,23.7z"/>
	<path class="st0" d="M220.5,52.3c-8.5,0-17.8,0.8-24.1,8c-6.3-7.3-15.5-8-24-8c-15.7,0-25.9,11.2-25.9,28.2v40.1
		c0,1,0.5,2.5,1.5,2.5h17c1,0,1.7-1.6,1.7-2.5V82.3c0-6.8,3.1-11.2,9.6-11.2c6.8,0,10.5,4.8,10.5,12.8v36.7c0,1,1.1,2.5,2.1,2.5h5.3
		h4.6h5.3c1,0,2.1-1.6,2.1-2.5V83.9c0-8,3.7-12.8,10.5-12.8c6.5,0,9.6,4.4,9.6,11.2v38.3c0,1,0.7,2.5,1.7,2.5h17
		c1,0,1.5-1.6,1.5-2.5V80.5C246.3,63.5,236.1,52.3,220.5,52.3z"/>
	<circle class="st0" cx="394.1" cy="30.7" r="11.6"/>
	<circle class="st0" cx="428.2" cy="16.5" r="16.5"/>
</g>
</svg>
